<?xml version="1.0" standalone="no"?>
<!DOCTYPE svg PUBLIC "-//W3C//DTD SVG 20010904//EN"
 "http://www.w3.org/TR/2001/REC-SVG-20010904/DTD/svg10.dtd">
<svg version="1.0" xmlns="http://www.w3.org/2000/svg"
 width="500.000000pt" height="500.000000pt" viewBox="0 0 500.000000 500.000000"
 preserveAspectRatio="xMidYMid meet">
<metadata>
Created by potrace 1.14, written by Peter Selinger 2001-2017
</metadata>
<g transform="translate(0.000000,500.000000) scale(0.100000,-0.100000)"
fill="#000000" stroke="none">
<path d="M2377 4974 c-1 -1 -47 -4 -102 -7 -366 -22 -792 -169 -1133 -391
-185 -120 -446 -350 -541 -476 -14 -19 -36 -46 -49 -60 -44 -48 -211 -306
-261 -405 -121 -234 -216 -530 -246 -760 -2 -22 -7 -49 -9 -60 -10 -53 -20
-201 -20 -300 4 -607 212 -1170 599 -1620 362 -422 846 -703 1410 -821 151
-32 496 -47 700 -31 161 12 453 76 605 132 36 13 81 30 100 37 104 38 470 241
500 277 3 3 49 39 102 79 196 149 404 377 550 602 166 258 308 618 353 895 4
22 13 78 20 125 14 88 14 542 1 625 -4 22 -16 90 -27 150 -146 810 -720 1513
-1494 1829 -253 103 -556 170 -799 176 -160 4 -257 6 -259 4z"/>
</g>
</svg>
