<svg xmlns="http://www.w3.org/2000/svg" xmlns:xlink="http://www.w3.org/1999/xlink" width="1165" zoomAndPan="magnify"
    viewBox="0 0 873.75 150" height="150" preserveAspectRatio="xMidYMid meet" version="1.0">
    <defs>
        <g />
        <clipPath id="5eb331da67">
            <path
                d="M 76.203125 75.15625 L 100.886719 75.15625 L 100.886719 99.84375 L 76.203125 99.84375 Z M 76.203125 75.15625 "
                clip-rule="nonzero" />
        </clipPath>
        <clipPath id="5a5b090ad7">
            <path
                d="M 291.832031 74.96875 L 307.542969 74.96875 L 307.542969 99.65625 L 291.832031 99.65625 Z M 291.832031 74.96875 "
                clip-rule="nonzero" />
        </clipPath>
    </defs>
    <path fill="#fff5dc"
        d="M 86.441406 84.683594 C 84.136719 86.015625 87.65625 92.613281 90.179688 91.15625 L 92.519531 95.207031 C 91.453125 95.824219 90.554688 96.210938 89.320312 95.503906 C 85.890625 93.546875 82.117188 87.011719 82.226562 83.117188 C 82.261719 81.765625 83.058594 81.234375 84.101562 80.632812 Z M 86.441406 84.683594 "
        fill-opacity="1" fill-rule="evenodd" />
    <path fill="#fff5dc"
        d="M 87.410156 84.574219 C 87.160156 84.71875 86.839844 84.632812 86.695312 84.382812 L 84.492188 80.5625 C 84.347656 80.3125 84.433594 79.992188 84.683594 79.847656 L 85.839844 79.179688 C 86.089844 79.035156 86.410156 79.121094 86.554688 79.371094 L 88.761719 83.191406 C 88.90625 83.441406 88.820312 83.761719 88.570312 83.90625 Z M 87.410156 84.574219 "
        fill-opacity="1" fill-rule="evenodd" />
    <path fill="#fff5dc"
        d="M 93.4375 95.011719 C 93.1875 95.15625 92.867188 95.070312 92.722656 94.820312 L 90.515625 91 C 90.375 90.75 90.460938 90.429688 90.707031 90.285156 L 91.867188 89.617188 C 92.117188 89.472656 92.4375 89.558594 92.582031 89.808594 L 94.789062 93.628906 C 94.929688 93.878906 94.84375 94.199219 94.597656 94.34375 Z M 93.4375 95.011719 "
        fill-opacity="1" fill-rule="evenodd" />
    <g clip-path="url(#5eb331da67)">
        <path fill="#fff5dc"
            d="M 88.542969 75.15625 L 88.542969 75.160156 C 91.949219 75.160156 95.035156 76.539062 97.265625 78.773438 C 99.496094 81.003906 100.878906 84.085938 100.878906 87.496094 C 100.878906 90.90625 99.496094 93.992188 97.265625 96.222656 C 95.035156 98.453125 91.949219 99.832031 88.542969 99.832031 L 88.542969 99.835938 L 88.539062 99.835938 L 88.539062 99.832031 C 85.132812 99.832031 82.046875 98.453125 79.816406 96.222656 C 77.585938 93.988281 76.203125 90.90625 76.203125 87.496094 C 76.203125 84.085938 77.585938 81.003906 79.816406 78.769531 C 82.046875 76.539062 85.132812 75.160156 88.539062 75.160156 L 88.539062 75.15625 Z M 88.542969 76.628906 L 88.542969 76.632812 L 88.539062 76.632812 L 88.539062 76.628906 C 85.542969 76.628906 82.828125 77.847656 80.859375 79.8125 C 78.890625 81.78125 77.671875 84.5 77.671875 87.496094 L 77.675781 87.496094 L 77.671875 87.496094 C 77.671875 90.496094 78.890625 93.210938 80.859375 95.179688 C 82.828125 97.144531 85.542969 98.363281 88.542969 98.363281 L 88.542969 98.359375 L 88.542969 98.363281 C 91.539062 98.363281 94.253906 97.148438 96.222656 95.179688 C 98.191406 93.210938 99.410156 90.492188 99.410156 87.496094 L 99.40625 87.496094 L 99.410156 87.496094 C 99.410156 84.5 98.191406 81.78125 96.222656 79.8125 C 94.253906 77.847656 91.539062 76.628906 88.542969 76.628906 Z M 88.542969 76.628906 "
            fill-opacity="1" fill-rule="nonzero" />
    </g>
    <g clip-path="url(#5a5b090ad7)">
        <path fill="#fff5dc"
            d="M 307.542969 83.03125 C 307.542969 78.589844 304.027344 74.992188 299.6875 74.992188 C 295.351562 74.992188 291.832031 78.589844 291.832031 83.03125 C 291.832031 83.109375 291.84375 83.1875 291.84375 83.265625 C 291.84375 83.269531 291.839844 83.269531 291.839844 83.269531 C 291.839844 83.445312 291.851562 83.632812 291.871094 83.828125 C 291.875 83.863281 291.882812 83.898438 291.882812 83.933594 C 291.90625 84.097656 291.929688 84.265625 291.960938 84.441406 C 291.980469 84.5625 292.003906 84.683594 292.03125 84.800781 C 293.230469 90.25 299.6875 99.632812 299.6875 99.632812 C 299.6875 99.632812 305.484375 91.042969 307.117188 85.625 C 307.246094 85.230469 307.347656 84.828125 307.417969 84.410156 C 307.496094 84 307.542969 83.613281 307.542969 83.269531 C 307.542969 83.242188 307.535156 83.21875 307.535156 83.191406 C 307.535156 83.136719 307.542969 83.085938 307.542969 83.03125 Z M 299.6875 87.222656 C 297.390625 87.222656 295.527344 85.320312 295.527344 82.96875 C 295.527344 80.621094 297.390625 78.714844 299.6875 78.714844 C 301.984375 78.714844 303.847656 80.621094 303.847656 82.96875 C 303.847656 85.320312 301.984375 87.222656 299.6875 87.222656 Z M 299.6875 87.222656 "
            fill-opacity="1" fill-rule="nonzero" />
    </g>
    <g fill="#fff5dc" fill-opacity="1">
        <g transform="translate(111.384618, 92.9618)">
            <g>
                <path
                    d="M 10.5625 -5.78125 L 6.796875 -5.78125 L 6.796875 -1.96875 L 5.28125 -1.96875 L 5.28125 -5.78125 L 1.53125 -5.78125 L 1.53125 -7.140625 L 5.28125 -7.140625 L 5.28125 -10.984375 L 6.796875 -10.984375 L 6.796875 -7.140625 L 10.5625 -7.140625 Z M 10.5625 -5.78125 " />
            </g>
        </g>
    </g>
    <g fill="#fff5dc" fill-opacity="1">
        <g transform="translate(124.16631, 92.9618)">
            <g>
                <path
                    d="M 3.171875 -3.4375 C 3.285156 -2.757812 3.554688 -2.238281 3.984375 -1.875 C 4.421875 -1.507812 5.003906 -1.328125 5.734375 -1.328125 C 6.710938 -1.328125 7.429688 -1.707031 7.890625 -2.46875 C 8.359375 -3.238281 8.582031 -4.53125 8.5625 -6.34375 C 8.3125 -5.8125 7.894531 -5.394531 7.3125 -5.09375 C 6.738281 -4.800781 6.097656 -4.65625 5.390625 -4.65625 C 4.597656 -4.65625 3.894531 -4.816406 3.28125 -5.140625 C 2.664062 -5.460938 2.179688 -5.9375 1.828125 -6.5625 C 1.472656 -7.1875 1.296875 -7.941406 1.296875 -8.828125 C 1.296875 -10.085938 1.660156 -11.101562 2.390625 -11.875 C 3.117188 -12.644531 4.15625 -13.03125 5.5 -13.03125 C 7.15625 -13.03125 8.3125 -12.492188 8.96875 -11.421875 C 9.632812 -10.347656 9.96875 -8.753906 9.96875 -6.640625 C 9.96875 -5.148438 9.835938 -3.921875 9.578125 -2.953125 C 9.316406 -1.984375 8.867188 -1.242188 8.234375 -0.734375 C 7.597656 -0.234375 6.734375 0.015625 5.640625 0.015625 C 4.441406 0.015625 3.503906 -0.304688 2.828125 -0.953125 C 2.160156 -1.597656 1.78125 -2.425781 1.6875 -3.4375 Z M 5.65625 -6.015625 C 6.445312 -6.015625 7.09375 -6.257812 7.59375 -6.75 C 8.101562 -7.238281 8.359375 -7.898438 8.359375 -8.734375 C 8.359375 -9.617188 8.109375 -10.332031 7.609375 -10.875 C 7.117188 -11.414062 6.425781 -11.6875 5.53125 -11.6875 C 4.707031 -11.6875 4.050781 -11.425781 3.5625 -10.90625 C 3.070312 -10.394531 2.828125 -9.710938 2.828125 -8.859375 C 2.828125 -7.992188 3.066406 -7.300781 3.546875 -6.78125 C 4.035156 -6.269531 4.738281 -6.015625 5.65625 -6.015625 Z M 5.65625 -6.015625 " />
            </g>
        </g>
    </g>
    <g fill="#fff5dc" fill-opacity="1">
        <g transform="translate(136.01106, 92.9618)">
            <g>
                <path
                    d="M 0.671875 -11.3125 L 0.671875 -12.78125 L 4 -12.78125 L 4 0 L 2.375 0 L 2.375 -11.3125 Z M 0.671875 -11.3125 " />
            </g>
        </g>
    </g>
    <g fill="#fff5dc" fill-opacity="1">
        <g transform="translate(142.37561, 92.9618)">
            <g>
                <path
                    d="M 8.09375 -7.15625 L 8.09375 -5.796875 L 1.03125 -5.796875 L 1.03125 -7.15625 Z M 8.09375 -7.15625 " />
            </g>
        </g>
    </g>
    <g fill="#fff5dc" fill-opacity="1">
        <g transform="translate(152.823804, 92.9618)">
            <g>
                <path
                    d="M 3.4375 -6.65625 C 2.769531 -6.914062 2.257812 -7.289062 1.90625 -7.78125 C 1.550781 -8.28125 1.375 -8.882812 1.375 -9.59375 C 1.375 -10.226562 1.53125 -10.800781 1.84375 -11.3125 C 2.164062 -11.820312 2.644531 -12.226562 3.28125 -12.53125 C 3.914062 -12.832031 4.679688 -12.984375 5.578125 -12.984375 C 6.472656 -12.984375 7.234375 -12.832031 7.859375 -12.53125 C 8.492188 -12.226562 8.972656 -11.820312 9.296875 -11.3125 C 9.617188 -10.800781 9.78125 -10.226562 9.78125 -9.59375 C 9.78125 -8.90625 9.597656 -8.300781 9.234375 -7.78125 C 8.867188 -7.269531 8.367188 -6.894531 7.734375 -6.65625 C 8.460938 -6.425781 9.039062 -6.03125 9.46875 -5.46875 C 9.90625 -4.914062 10.125 -4.242188 10.125 -3.453125 C 10.125 -2.679688 9.929688 -2.007812 9.546875 -1.4375 C 9.171875 -0.863281 8.640625 -0.421875 7.953125 -0.109375 C 7.265625 0.203125 6.472656 0.359375 5.578125 0.359375 C 4.679688 0.359375 3.890625 0.203125 3.203125 -0.109375 C 2.523438 -0.421875 2 -0.863281 1.625 -1.4375 C 1.25 -2.007812 1.0625 -2.679688 1.0625 -3.453125 C 1.0625 -4.242188 1.269531 -4.921875 1.6875 -5.484375 C 2.113281 -6.046875 2.695312 -6.4375 3.4375 -6.65625 Z M 8.21875 -9.390625 C 8.21875 -10.109375 7.984375 -10.660156 7.515625 -11.046875 C 7.046875 -11.441406 6.398438 -11.640625 5.578125 -11.640625 C 4.753906 -11.640625 4.109375 -11.441406 3.640625 -11.046875 C 3.171875 -10.660156 2.9375 -10.101562 2.9375 -9.375 C 2.9375 -8.71875 3.179688 -8.1875 3.671875 -7.78125 C 4.160156 -7.382812 4.796875 -7.1875 5.578125 -7.1875 C 6.359375 -7.1875 6.992188 -7.390625 7.484375 -7.796875 C 7.972656 -8.203125 8.21875 -8.734375 8.21875 -9.390625 Z M 5.578125 -5.9375 C 4.703125 -5.9375 3.984375 -5.734375 3.421875 -5.328125 C 2.867188 -4.921875 2.59375 -4.3125 2.59375 -3.5 C 2.59375 -2.75 2.859375 -2.140625 3.390625 -1.671875 C 3.929688 -1.210938 4.660156 -0.984375 5.578125 -0.984375 C 6.484375 -0.984375 7.203125 -1.210938 7.734375 -1.671875 C 8.265625 -2.140625 8.53125 -2.75 8.53125 -3.5 C 8.53125 -4.289062 8.253906 -4.894531 7.703125 -5.3125 C 7.160156 -5.726562 6.453125 -5.9375 5.578125 -5.9375 Z M 5.578125 -5.9375 " />
            </g>
        </g>
    </g>
    <g fill="#fff5dc" fill-opacity="1">
        <g transform="translate(164.686236, 92.9618)">
            <g>
                <path
                    d="M 3.4375 -6.65625 C 2.769531 -6.914062 2.257812 -7.289062 1.90625 -7.78125 C 1.550781 -8.28125 1.375 -8.882812 1.375 -9.59375 C 1.375 -10.226562 1.53125 -10.800781 1.84375 -11.3125 C 2.164062 -11.820312 2.644531 -12.226562 3.28125 -12.53125 C 3.914062 -12.832031 4.679688 -12.984375 5.578125 -12.984375 C 6.472656 -12.984375 7.234375 -12.832031 7.859375 -12.53125 C 8.492188 -12.226562 8.972656 -11.820312 9.296875 -11.3125 C 9.617188 -10.800781 9.78125 -10.226562 9.78125 -9.59375 C 9.78125 -8.90625 9.597656 -8.300781 9.234375 -7.78125 C 8.867188 -7.269531 8.367188 -6.894531 7.734375 -6.65625 C 8.460938 -6.425781 9.039062 -6.03125 9.46875 -5.46875 C 9.90625 -4.914062 10.125 -4.242188 10.125 -3.453125 C 10.125 -2.679688 9.929688 -2.007812 9.546875 -1.4375 C 9.171875 -0.863281 8.640625 -0.421875 7.953125 -0.109375 C 7.265625 0.203125 6.472656 0.359375 5.578125 0.359375 C 4.679688 0.359375 3.890625 0.203125 3.203125 -0.109375 C 2.523438 -0.421875 2 -0.863281 1.625 -1.4375 C 1.25 -2.007812 1.0625 -2.679688 1.0625 -3.453125 C 1.0625 -4.242188 1.269531 -4.921875 1.6875 -5.484375 C 2.113281 -6.046875 2.695312 -6.4375 3.4375 -6.65625 Z M 8.21875 -9.390625 C 8.21875 -10.109375 7.984375 -10.660156 7.515625 -11.046875 C 7.046875 -11.441406 6.398438 -11.640625 5.578125 -11.640625 C 4.753906 -11.640625 4.109375 -11.441406 3.640625 -11.046875 C 3.171875 -10.660156 2.9375 -10.101562 2.9375 -9.375 C 2.9375 -8.71875 3.179688 -8.1875 3.671875 -7.78125 C 4.160156 -7.382812 4.796875 -7.1875 5.578125 -7.1875 C 6.359375 -7.1875 6.992188 -7.390625 7.484375 -7.796875 C 7.972656 -8.203125 8.21875 -8.734375 8.21875 -9.390625 Z M 5.578125 -5.9375 C 4.703125 -5.9375 3.984375 -5.734375 3.421875 -5.328125 C 2.867188 -4.921875 2.59375 -4.3125 2.59375 -3.5 C 2.59375 -2.75 2.859375 -2.140625 3.390625 -1.671875 C 3.929688 -1.210938 4.660156 -0.984375 5.578125 -0.984375 C 6.484375 -0.984375 7.203125 -1.210938 7.734375 -1.671875 C 8.265625 -2.140625 8.53125 -2.75 8.53125 -3.5 C 8.53125 -4.289062 8.253906 -4.894531 7.703125 -5.3125 C 7.160156 -5.726562 6.453125 -5.9375 5.578125 -5.9375 Z M 5.578125 -5.9375 " />
            </g>
        </g>
    </g>
    <g fill="#fff5dc" fill-opacity="1">
        <g transform="translate(176.548668, 92.9618)">
            <g>
                <path
                    d="M 8.21875 -9.75 C 7.957031 -11.050781 7.148438 -11.703125 5.796875 -11.703125 C 4.753906 -11.703125 3.972656 -11.296875 3.453125 -10.484375 C 2.929688 -9.679688 2.675781 -8.359375 2.6875 -6.515625 C 2.957031 -7.117188 3.40625 -7.59375 4.03125 -7.9375 C 4.664062 -8.289062 5.375 -8.46875 6.15625 -8.46875 C 7.375 -8.46875 8.34375 -8.085938 9.0625 -7.328125 C 9.789062 -6.578125 10.15625 -5.535156 10.15625 -4.203125 C 10.15625 -3.398438 10 -2.679688 9.6875 -2.046875 C 9.375 -1.410156 8.898438 -0.90625 8.265625 -0.53125 C 7.640625 -0.15625 6.878906 0.03125 5.984375 0.03125 C 4.765625 0.03125 3.8125 -0.238281 3.125 -0.78125 C 2.445312 -1.320312 1.972656 -2.066406 1.703125 -3.015625 C 1.429688 -3.972656 1.296875 -5.15625 1.296875 -6.5625 C 1.296875 -10.882812 2.800781 -13.046875 5.8125 -13.046875 C 6.96875 -13.046875 7.875 -12.734375 8.53125 -12.109375 C 9.195312 -11.484375 9.585938 -10.695312 9.703125 -9.75 Z M 5.8125 -7.109375 C 5.3125 -7.109375 4.835938 -7.003906 4.390625 -6.796875 C 3.941406 -6.585938 3.578125 -6.273438 3.296875 -5.859375 C 3.023438 -5.441406 2.890625 -4.929688 2.890625 -4.328125 C 2.890625 -3.429688 3.144531 -2.703125 3.65625 -2.140625 C 4.175781 -1.585938 4.921875 -1.3125 5.890625 -1.3125 C 6.710938 -1.3125 7.367188 -1.566406 7.859375 -2.078125 C 8.347656 -2.585938 8.59375 -3.28125 8.59375 -4.15625 C 8.59375 -5.070312 8.359375 -5.789062 7.890625 -6.3125 C 7.421875 -6.84375 6.726562 -7.109375 5.8125 -7.109375 Z M 5.8125 -7.109375 " />
            </g>
        </g>
    </g>
    <g fill="#fff5dc" fill-opacity="1">
        <g transform="translate(188.481807, 92.9618)">
            <g>
                <path
                    d="M 1.0625 -9.5625 C 1.144531 -10.65625 1.5625 -11.503906 2.3125 -12.109375 C 3.070312 -12.722656 4.050781 -13.03125 5.25 -13.03125 C 6.050781 -13.03125 6.742188 -12.882812 7.328125 -12.59375 C 7.910156 -12.3125 8.351562 -11.921875 8.65625 -11.421875 C 8.957031 -10.929688 9.109375 -10.375 9.109375 -9.75 C 9.109375 -9.019531 8.898438 -8.390625 8.484375 -7.859375 C 8.066406 -7.328125 7.519531 -6.984375 6.84375 -6.828125 L 6.84375 -6.734375 C 7.613281 -6.546875 8.222656 -6.175781 8.671875 -5.625 C 9.117188 -5.070312 9.34375 -4.347656 9.34375 -3.453125 C 9.34375 -2.773438 9.1875 -2.164062 8.875 -1.625 C 8.570312 -1.09375 8.113281 -0.671875 7.5 -0.359375 C 6.882812 -0.0546875 6.144531 0.09375 5.28125 0.09375 C 4.03125 0.09375 3.003906 -0.234375 2.203125 -0.890625 C 1.410156 -1.546875 0.960938 -2.472656 0.859375 -3.671875 L 2.421875 -3.671875 C 2.503906 -2.972656 2.789062 -2.398438 3.28125 -1.953125 C 3.78125 -1.503906 4.441406 -1.28125 5.265625 -1.28125 C 6.097656 -1.28125 6.726562 -1.492188 7.15625 -1.921875 C 7.582031 -2.347656 7.796875 -2.90625 7.796875 -3.59375 C 7.796875 -4.476562 7.5 -5.113281 6.90625 -5.5 C 6.320312 -5.882812 5.4375 -6.078125 4.25 -6.078125 L 3.84375 -6.078125 L 3.84375 -7.421875 L 4.265625 -7.421875 C 5.347656 -7.441406 6.164062 -7.625 6.71875 -7.96875 C 7.269531 -8.3125 7.546875 -8.851562 7.546875 -9.59375 C 7.546875 -10.21875 7.34375 -10.71875 6.9375 -11.09375 C 6.53125 -11.46875 5.953125 -11.65625 5.203125 -11.65625 C 4.472656 -11.65625 3.882812 -11.46875 3.4375 -11.09375 C 2.988281 -10.71875 2.722656 -10.207031 2.640625 -9.5625 Z M 1.0625 -9.5625 " />
            </g>
        </g>
    </g>
    <g fill="#fff5dc" fill-opacity="1">
        <g transform="translate(199.601764, 92.9618)">
            <g>
                <path
                    d="M 3.4375 -6.65625 C 2.769531 -6.914062 2.257812 -7.289062 1.90625 -7.78125 C 1.550781 -8.28125 1.375 -8.882812 1.375 -9.59375 C 1.375 -10.226562 1.53125 -10.800781 1.84375 -11.3125 C 2.164062 -11.820312 2.644531 -12.226562 3.28125 -12.53125 C 3.914062 -12.832031 4.679688 -12.984375 5.578125 -12.984375 C 6.472656 -12.984375 7.234375 -12.832031 7.859375 -12.53125 C 8.492188 -12.226562 8.972656 -11.820312 9.296875 -11.3125 C 9.617188 -10.800781 9.78125 -10.226562 9.78125 -9.59375 C 9.78125 -8.90625 9.597656 -8.300781 9.234375 -7.78125 C 8.867188 -7.269531 8.367188 -6.894531 7.734375 -6.65625 C 8.460938 -6.425781 9.039062 -6.03125 9.46875 -5.46875 C 9.90625 -4.914062 10.125 -4.242188 10.125 -3.453125 C 10.125 -2.679688 9.929688 -2.007812 9.546875 -1.4375 C 9.171875 -0.863281 8.640625 -0.421875 7.953125 -0.109375 C 7.265625 0.203125 6.472656 0.359375 5.578125 0.359375 C 4.679688 0.359375 3.890625 0.203125 3.203125 -0.109375 C 2.523438 -0.421875 2 -0.863281 1.625 -1.4375 C 1.25 -2.007812 1.0625 -2.679688 1.0625 -3.453125 C 1.0625 -4.242188 1.269531 -4.921875 1.6875 -5.484375 C 2.113281 -6.046875 2.695312 -6.4375 3.4375 -6.65625 Z M 8.21875 -9.390625 C 8.21875 -10.109375 7.984375 -10.660156 7.515625 -11.046875 C 7.046875 -11.441406 6.398438 -11.640625 5.578125 -11.640625 C 4.753906 -11.640625 4.109375 -11.441406 3.640625 -11.046875 C 3.171875 -10.660156 2.9375 -10.101562 2.9375 -9.375 C 2.9375 -8.71875 3.179688 -8.1875 3.671875 -7.78125 C 4.160156 -7.382812 4.796875 -7.1875 5.578125 -7.1875 C 6.359375 -7.1875 6.992188 -7.390625 7.484375 -7.796875 C 7.972656 -8.203125 8.21875 -8.734375 8.21875 -9.390625 Z M 5.578125 -5.9375 C 4.703125 -5.9375 3.984375 -5.734375 3.421875 -5.328125 C 2.867188 -4.921875 2.59375 -4.3125 2.59375 -3.5 C 2.59375 -2.75 2.859375 -2.140625 3.390625 -1.671875 C 3.929688 -1.210938 4.660156 -0.984375 5.578125 -0.984375 C 6.484375 -0.984375 7.203125 -1.210938 7.734375 -1.671875 C 8.265625 -2.140625 8.53125 -2.75 8.53125 -3.5 C 8.53125 -4.289062 8.253906 -4.894531 7.703125 -5.3125 C 7.160156 -5.726562 6.453125 -5.9375 5.578125 -5.9375 Z M 5.578125 -5.9375 " />
            </g>
        </g>
    </g>
    <g fill="#fff5dc" fill-opacity="1">
        <g transform="translate(211.464196, 92.9618)">
            <g>
                <path
                    d="M 0.703125 -2.84375 L 0.703125 -4.0625 L 6.921875 -12.671875 L 8.84375 -12.671875 L 8.84375 -4.25 L 10.609375 -4.25 L 10.609375 -2.84375 L 8.84375 -2.84375 L 8.84375 0 L 7.25 0 L 7.25 -2.84375 Z M 7.328125 -10.984375 L 2.5625 -4.25 L 7.328125 -4.25 Z M 7.328125 -10.984375 " />
            </g>
        </g>
    </g>
    <g fill="#fff5dc" fill-opacity="1">
        <g transform="translate(223.291274, 92.9618)">
            <g>
                <path
                    d="M 1.09375 -6.53125 C 1.09375 -8.550781 1.421875 -10.128906 2.078125 -11.265625 C 2.742188 -12.410156 3.898438 -12.984375 5.546875 -12.984375 C 7.191406 -12.984375 8.34375 -12.410156 9 -11.265625 C 9.664062 -10.128906 10 -8.550781 10 -6.53125 C 10 -4.46875 9.664062 -2.863281 9 -1.71875 C 8.34375 -0.570312 7.191406 0 5.546875 0 C 3.898438 0 2.742188 -0.570312 2.078125 -1.71875 C 1.421875 -2.863281 1.09375 -4.46875 1.09375 -6.53125 Z M 8.40625 -6.53125 C 8.40625 -7.550781 8.335938 -8.414062 8.203125 -9.125 C 8.066406 -9.84375 7.785156 -10.421875 7.359375 -10.859375 C 6.941406 -11.296875 6.335938 -11.515625 5.546875 -11.515625 C 4.742188 -11.515625 4.132812 -11.296875 3.71875 -10.859375 C 3.300781 -10.421875 3.023438 -9.84375 2.890625 -9.125 C 2.753906 -8.414062 2.6875 -7.550781 2.6875 -6.53125 C 2.6875 -5.46875 2.753906 -4.578125 2.890625 -3.859375 C 3.023438 -3.140625 3.300781 -2.5625 3.71875 -2.125 C 4.132812 -1.6875 4.742188 -1.46875 5.546875 -1.46875 C 6.335938 -1.46875 6.941406 -1.6875 7.359375 -2.125 C 7.785156 -2.5625 8.066406 -3.140625 8.203125 -3.859375 C 8.335938 -4.578125 8.40625 -5.46875 8.40625 -6.53125 Z M 8.40625 -6.53125 " />
            </g>
        </g>
    </g>
    <g fill="#fff5dc" fill-opacity="1">
        <g transform="translate(235.100674, 92.9618)">
            <g>
                <path
                    d="M 0.90625 -1.296875 C 2.394531 -2.492188 3.566406 -3.476562 4.421875 -4.25 C 5.273438 -5.019531 5.992188 -5.828125 6.578125 -6.671875 C 7.160156 -7.515625 7.453125 -8.34375 7.453125 -9.15625 C 7.453125 -9.925781 7.265625 -10.53125 6.890625 -10.96875 C 6.515625 -11.414062 5.914062 -11.640625 5.09375 -11.640625 C 4.289062 -11.640625 3.664062 -11.390625 3.21875 -10.890625 C 2.78125 -10.390625 2.546875 -9.71875 2.515625 -8.875 L 0.953125 -8.875 C 1.003906 -10.195312 1.40625 -11.21875 2.15625 -11.9375 C 2.914062 -12.65625 3.890625 -13.015625 5.078125 -13.015625 C 6.285156 -13.015625 7.242188 -12.675781 7.953125 -12 C 8.671875 -11.332031 9.03125 -10.410156 9.03125 -9.234375 C 9.03125 -8.253906 8.738281 -7.300781 8.15625 -6.375 C 7.570312 -5.445312 6.910156 -4.632812 6.171875 -3.9375 C 5.429688 -3.238281 4.484375 -2.421875 3.328125 -1.484375 L 9.40625 -1.484375 L 9.40625 -0.140625 L 0.90625 -0.140625 Z M 0.90625 -1.296875 " />
            </g>
        </g>
    </g>
    <g fill="#fff5dc" fill-opacity="1">
        <g transform="translate(245.973125, 92.9618)">
            <g>
                <path
                    d="M 0.671875 -11.3125 L 0.671875 -12.78125 L 4 -12.78125 L 4 0 L 2.375 0 L 2.375 -11.3125 Z M 0.671875 -11.3125 " />
            </g>
        </g>
    </g>
    <g fill="#fff5dc" fill-opacity="1">
        <g transform="translate(252.337676, 92.9618)">
            <g>
                <path
                    d="M 8.96875 -11.53125 L 4.046875 0 L 2.421875 0 L 7.40625 -11.375 L 0.578125 -11.375 L 0.578125 -12.75 L 8.96875 -12.75 Z M 8.96875 -11.53125 " />
            </g>
        </g>
    </g>
    <g fill="#fff5dc" fill-opacity="1">
        <g transform="translate(317.377311, 92.961803)">
            <g>
                <path
                    d="M 11.078125 0 L 9.46875 0 L 2.984375 -9.828125 L 2.984375 0 L 1.359375 0 L 1.359375 -12.375 L 2.984375 -12.375 L 9.46875 -2.546875 L 9.46875 -12.375 L 11.078125 -12.375 Z M 11.078125 0 " />
            </g>
        </g>
    </g>
    <g fill="#fff5dc" fill-opacity="1">
        <g transform="translate(329.854085, 92.961803)">
            <g>
                <path
                    d="M 10.875 -12.34375 L 10.875 0 L 9.265625 0 L 9.265625 -5.59375 L 2.984375 -5.59375 L 2.984375 0 L 1.359375 0 L 1.359375 -12.34375 L 2.984375 -12.34375 L 2.984375 -6.921875 L 9.265625 -6.921875 L 9.265625 -12.34375 Z M 10.875 -12.34375 " />
            </g>
        </g>
    </g>
    <g fill="#fff5dc" fill-opacity="1">
        <g transform="translate(342.135912, 92.961803)">
            <g>
                <path
                    d="M 8.109375 -7.171875 L 8.109375 -5.8125 L 1.03125 -5.8125 L 1.03125 -7.171875 Z M 8.109375 -7.171875 " />
            </g>
        </g>
    </g>
    <g fill="#fff5dc" fill-opacity="1">
        <g transform="translate(351.918848, 92.961803)">
            <g>
                <path
                    d="M 0.671875 -11.34375 L 0.671875 -12.8125 L 4 -12.8125 L 4 0 L 2.375 0 L 2.375 -11.34375 Z M 0.671875 -11.34375 " />
            </g>
        </g>
    </g>
    <g fill="#fff5dc" fill-opacity="1">
        <g transform="translate(357.607837, 92.961803)">
            <g>
                <path
                    d="M 3.4375 -6.65625 C 2.769531 -6.914062 2.257812 -7.296875 1.90625 -7.796875 C 1.550781 -8.296875 1.375 -8.898438 1.375 -9.609375 C 1.375 -10.242188 1.535156 -10.816406 1.859375 -11.328125 C 2.179688 -11.847656 2.65625 -12.253906 3.28125 -12.546875 C 3.914062 -12.847656 4.679688 -13 5.578125 -13 C 6.472656 -13 7.238281 -12.847656 7.875 -12.546875 C 8.507812 -12.253906 8.988281 -11.847656 9.3125 -11.328125 C 9.632812 -10.816406 9.796875 -10.242188 9.796875 -9.609375 C 9.796875 -8.921875 9.613281 -8.316406 9.25 -7.796875 C 8.882812 -7.285156 8.382812 -6.90625 7.75 -6.65625 C 8.476562 -6.4375 9.054688 -6.046875 9.484375 -5.484375 C 9.921875 -4.921875 10.140625 -4.242188 10.140625 -3.453125 C 10.140625 -2.679688 9.945312 -2.007812 9.5625 -1.4375 C 9.1875 -0.863281 8.648438 -0.421875 7.953125 -0.109375 C 7.265625 0.203125 6.472656 0.359375 5.578125 0.359375 C 4.679688 0.359375 3.894531 0.203125 3.21875 -0.109375 C 2.539062 -0.421875 2.007812 -0.863281 1.625 -1.4375 C 1.25 -2.007812 1.0625 -2.679688 1.0625 -3.453125 C 1.0625 -4.242188 1.273438 -4.921875 1.703125 -5.484375 C 2.128906 -6.054688 2.707031 -6.445312 3.4375 -6.65625 Z M 8.234375 -9.40625 C 8.234375 -10.125 8 -10.675781 7.53125 -11.0625 C 7.0625 -11.457031 6.410156 -11.65625 5.578125 -11.65625 C 4.765625 -11.65625 4.117188 -11.457031 3.640625 -11.0625 C 3.171875 -10.675781 2.9375 -10.117188 2.9375 -9.390625 C 2.9375 -8.734375 3.179688 -8.203125 3.671875 -7.796875 C 4.160156 -7.390625 4.796875 -7.1875 5.578125 -7.1875 C 6.367188 -7.1875 7.007812 -7.390625 7.5 -7.796875 C 7.988281 -8.210938 8.234375 -8.75 8.234375 -9.40625 Z M 5.578125 -5.953125 C 4.703125 -5.953125 3.988281 -5.75 3.4375 -5.34375 C 2.882812 -4.9375 2.609375 -4.328125 2.609375 -3.515625 C 2.609375 -2.753906 2.875 -2.144531 3.40625 -1.6875 C 3.945312 -1.226562 4.671875 -1 5.578125 -1 C 6.492188 -1 7.21875 -1.226562 7.75 -1.6875 C 8.28125 -2.144531 8.546875 -2.753906 8.546875 -3.515625 C 8.546875 -4.304688 8.269531 -4.910156 7.71875 -5.328125 C 7.175781 -5.742188 6.460938 -5.953125 5.578125 -5.953125 Z M 5.578125 -5.953125 " />
            </g>
        </g>
    </g>
    <g fill="#fff5dc" fill-opacity="1">
        <g transform="translate(368.80858, 92.961803)">
            <g>
                <path
                    d="M 3.03125 -2.234375 L 1.046875 2.53125 L -0.03125 2.53125 L 1.265625 -2.234375 Z M 3.03125 -2.234375 " />
            </g>
        </g>
    </g>
    <g fill="#fff5dc" fill-opacity="1">
        <g transform="translate(372.335403, 92.961803)">
            <g />
        </g>
    </g>
    <g fill="#fff5dc" fill-opacity="1">
        <g transform="translate(377.085087, 92.961803)">
            <g>
                <path
                    d="M 11.078125 0 L 9.46875 0 L 2.984375 -9.828125 L 2.984375 0 L 1.359375 0 L 1.359375 -12.375 L 2.984375 -12.375 L 9.46875 -2.546875 L 9.46875 -12.375 L 11.078125 -12.375 Z M 11.078125 0 " />
            </g>
        </g>
    </g>
    <g fill="#fff5dc" fill-opacity="1">
        <g transform="translate(389.561863, 92.961803)">
            <g>
                <path
                    d="M 10.21875 -5.234375 C 10.21875 -4.921875 10.203125 -4.59375 10.171875 -4.25 L 2.40625 -4.25 C 2.46875 -3.289062 2.796875 -2.539062 3.390625 -2 C 3.984375 -1.46875 4.707031 -1.203125 5.5625 -1.203125 C 6.257812 -1.203125 6.84375 -1.363281 7.3125 -1.6875 C 7.78125 -2.007812 8.109375 -2.445312 8.296875 -3 L 10.03125 -3 C 9.769531 -2.0625 9.25 -1.300781 8.46875 -0.71875 C 7.6875 -0.132812 6.71875 0.15625 5.5625 0.15625 C 4.644531 0.15625 3.820312 -0.046875 3.09375 -0.453125 C 2.363281 -0.867188 1.789062 -1.457031 1.375 -2.21875 C 0.96875 -2.976562 0.765625 -3.863281 0.765625 -4.875 C 0.765625 -5.875 0.960938 -6.75 1.359375 -7.5 C 1.765625 -8.257812 2.328125 -8.84375 3.046875 -9.25 C 3.773438 -9.664062 4.613281 -9.875 5.5625 -9.875 C 6.488281 -9.875 7.304688 -9.671875 8.015625 -9.265625 C 8.722656 -8.867188 9.265625 -8.316406 9.640625 -7.609375 C 10.023438 -6.910156 10.21875 -6.117188 10.21875 -5.234375 Z M 8.5625 -5.5625 C 8.5625 -6.175781 8.425781 -6.703125 8.15625 -7.140625 C 7.882812 -7.585938 7.515625 -7.925781 7.046875 -8.15625 C 6.578125 -8.382812 6.0625 -8.5 5.5 -8.5 C 4.675781 -8.5 3.976562 -8.238281 3.40625 -7.71875 C 2.832031 -7.207031 2.503906 -6.488281 2.421875 -5.5625 Z M 8.5625 -5.5625 " />
            </g>
        </g>
    </g>
    <g fill="#fff5dc" fill-opacity="1">
        <g transform="translate(400.567663, 92.961803)">
            <g>
                <path
                    d="M 0.765625 -4.890625 C 0.765625 -5.878906 0.960938 -6.75 1.359375 -7.5 C 1.765625 -8.25 2.316406 -8.832031 3.015625 -9.25 C 3.722656 -9.664062 4.507812 -9.875 5.375 -9.875 C 6.21875 -9.875 6.953125 -9.6875 7.578125 -9.3125 C 8.203125 -8.945312 8.671875 -8.488281 8.984375 -7.9375 L 8.984375 -9.703125 L 10.609375 -9.703125 L 10.609375 0 L 8.984375 0 L 8.984375 -1.8125 C 8.660156 -1.238281 8.179688 -0.765625 7.546875 -0.390625 C 6.921875 -0.0234375 6.1875 0.15625 5.34375 0.15625 C 4.488281 0.15625 3.710938 -0.0507812 3.015625 -0.46875 C 2.316406 -0.894531 1.765625 -1.492188 1.359375 -2.265625 C 0.960938 -3.035156 0.765625 -3.910156 0.765625 -4.890625 Z M 8.984375 -4.875 C 8.984375 -5.601562 8.832031 -6.238281 8.53125 -6.78125 C 8.238281 -7.320312 7.84375 -7.738281 7.34375 -8.03125 C 6.84375 -8.320312 6.289062 -8.46875 5.6875 -8.46875 C 5.082031 -8.46875 4.53125 -8.328125 4.03125 -8.046875 C 3.539062 -7.765625 3.144531 -7.347656 2.84375 -6.796875 C 2.550781 -6.253906 2.40625 -5.617188 2.40625 -4.890625 C 2.40625 -4.148438 2.550781 -3.503906 2.84375 -2.953125 C 3.144531 -2.398438 3.539062 -1.976562 4.03125 -1.6875 C 4.53125 -1.40625 5.082031 -1.265625 5.6875 -1.265625 C 6.289062 -1.265625 6.84375 -1.40625 7.34375 -1.6875 C 7.84375 -1.976562 8.238281 -2.398438 8.53125 -2.953125 C 8.832031 -3.503906 8.984375 -4.144531 8.984375 -4.875 Z M 8.984375 -4.875 " />
            </g>
        </g>
    </g>
    <g fill="#fff5dc" fill-opacity="1">
        <g transform="translate(412.565937, 92.961803)">
            <g>
                <path
                    d="M 2.984375 -8.140625 C 3.265625 -8.691406 3.664062 -9.117188 4.1875 -9.421875 C 4.71875 -9.734375 5.359375 -9.890625 6.109375 -9.890625 L 6.109375 -8.21875 L 5.6875 -8.21875 C 3.882812 -8.21875 2.984375 -7.238281 2.984375 -5.28125 L 2.984375 0 L 1.359375 0 L 1.359375 -9.703125 L 2.984375 -9.703125 Z M 2.984375 -8.140625 " />
            </g>
        </g>
    </g>
    <g fill="#fff5dc" fill-opacity="1">
        <g transform="translate(419.194235, 92.961803)">
            <g />
        </g>
    </g>
    <g fill="#fff5dc" fill-opacity="1">
        <g transform="translate(423.943923, 92.961803)">
            <g>
                <path
                    d="M 8.96875 -12.34375 L 8.96875 -11.03125 L 5.59375 -11.03125 L 5.59375 0 L 3.984375 0 L 3.984375 -11.03125 L 0.609375 -11.03125 L 0.609375 -12.34375 Z M 8.96875 -12.34375 " />
            </g>
        </g>
    </g>
    <g fill="#fff5dc" fill-opacity="1">
        <g transform="translate(433.549629, 92.961803)">
            <g>
                <path
                    d="M 9.625 -8.734375 C 9.625 -7.703125 9.269531 -6.847656 8.5625 -6.171875 C 7.863281 -5.492188 6.789062 -5.15625 5.34375 -5.15625 L 2.984375 -5.15625 L 2.984375 0 L 1.359375 0 L 1.359375 -12.34375 L 5.34375 -12.34375 C 6.738281 -12.34375 7.800781 -12.003906 8.53125 -11.328125 C 9.257812 -10.660156 9.625 -9.796875 9.625 -8.734375 Z M 5.34375 -6.484375 C 6.25 -6.484375 6.910156 -6.675781 7.328125 -7.0625 C 7.753906 -7.457031 7.96875 -8.015625 7.96875 -8.734375 C 7.96875 -10.253906 7.09375 -11.015625 5.34375 -11.015625 L 2.984375 -11.015625 L 2.984375 -6.484375 Z M 5.34375 -6.484375 " />
            </g>
        </g>
    </g>
    <g fill="#fff5dc" fill-opacity="1">
        <g transform="translate(443.82879, 92.961803)">
            <g>
                <path
                    d="M 5.28125 0.125 C 4.46875 0.125 3.738281 -0.0195312 3.09375 -0.3125 C 2.445312 -0.601562 1.941406 -1.003906 1.578125 -1.515625 C 1.210938 -2.023438 1.023438 -2.617188 1.015625 -3.296875 L 2.734375 -3.296875 C 2.785156 -2.710938 3.019531 -2.222656 3.4375 -1.828125 C 3.863281 -1.429688 4.476562 -1.234375 5.28125 -1.234375 C 6.050781 -1.234375 6.65625 -1.425781 7.09375 -1.8125 C 7.539062 -2.195312 7.765625 -2.691406 7.765625 -3.296875 C 7.765625 -3.765625 7.632812 -4.144531 7.375 -4.4375 C 7.113281 -4.738281 6.785156 -4.960938 6.390625 -5.109375 C 6.003906 -5.265625 5.476562 -5.429688 4.8125 -5.609375 C 4 -5.828125 3.347656 -6.039062 2.859375 -6.25 C 2.367188 -6.46875 1.945312 -6.800781 1.59375 -7.25 C 1.25 -7.707031 1.078125 -8.320312 1.078125 -9.09375 C 1.078125 -9.757812 1.25 -10.351562 1.59375 -10.875 C 1.9375 -11.394531 2.414062 -11.796875 3.03125 -12.078125 C 3.65625 -12.367188 4.367188 -12.515625 5.171875 -12.515625 C 6.328125 -12.515625 7.273438 -12.222656 8.015625 -11.640625 C 8.753906 -11.054688 9.171875 -10.289062 9.265625 -9.34375 L 7.5 -9.34375 C 7.4375 -9.8125 7.1875 -10.222656 6.75 -10.578125 C 6.3125 -10.941406 5.734375 -11.125 5.015625 -11.125 C 4.335938 -11.125 3.785156 -10.945312 3.359375 -10.59375 C 2.941406 -10.25 2.734375 -9.765625 2.734375 -9.140625 C 2.734375 -8.691406 2.859375 -8.328125 3.109375 -8.046875 C 3.359375 -7.765625 3.671875 -7.546875 4.046875 -7.390625 C 4.421875 -7.242188 4.941406 -7.078125 5.609375 -6.890625 C 6.429688 -6.671875 7.085938 -6.453125 7.578125 -6.234375 C 8.078125 -6.015625 8.503906 -5.675781 8.859375 -5.21875 C 9.210938 -4.757812 9.390625 -4.140625 9.390625 -3.359375 C 9.390625 -2.765625 9.226562 -2.203125 8.90625 -1.671875 C 8.59375 -1.140625 8.125 -0.707031 7.5 -0.375 C 6.875 -0.0390625 6.132812 0.125 5.28125 0.125 Z M 5.28125 0.125 " />
            </g>
        </g>
    </g>
    <g fill="#fff5dc" fill-opacity="1">
        <g transform="translate(454.249729, 92.961803)">
            <g />
        </g>
    </g>
    <g fill="#fff5dc" fill-opacity="1">
        <g transform="translate(458.99941, 92.961803)">
            <g>
                <path
                    d="M 5.203125 -12.34375 C 6.554688 -12.34375 7.722656 -12.09375 8.703125 -11.59375 C 9.691406 -11.09375 10.445312 -10.375 10.96875 -9.4375 C 11.5 -8.507812 11.765625 -7.410156 11.765625 -6.140625 C 11.765625 -4.878906 11.5 -3.785156 10.96875 -2.859375 C 10.445312 -1.929688 9.691406 -1.222656 8.703125 -0.734375 C 7.722656 -0.242188 6.554688 0 5.203125 0 L 1.359375 0 L 1.359375 -12.34375 Z M 5.203125 -1.328125 C 6.796875 -1.328125 8.015625 -1.75 8.859375 -2.59375 C 9.703125 -3.4375 10.125 -4.617188 10.125 -6.140625 C 10.125 -7.679688 9.695312 -8.878906 8.84375 -9.734375 C 8 -10.597656 6.785156 -11.03125 5.203125 -11.03125 L 2.984375 -11.03125 L 2.984375 -1.328125 Z M 5.203125 -1.328125 " />
            </g>
        </g>
    </g>
    <g fill="#fff5dc" fill-opacity="1">
        <g transform="translate(471.547075, 92.961803)">
            <g>
                <path
                    d="M 8.671875 -2.75 L 3.28125 -2.75 L 2.28125 0 L 0.578125 0 L 5.046875 -12.28125 L 6.90625 -12.28125 L 11.359375 0 L 9.65625 0 Z M 8.203125 -4.0625 L 5.96875 -10.296875 L 3.734375 -4.0625 Z M 8.203125 -4.0625 " />
            </g>
        </g>
    </g>
    <g fill="#fff5dc" fill-opacity="1">
        <g transform="translate(483.509886, 92.961803)">
            <g>
                <path
                    d="M 11.578125 -12.34375 L 6.90625 0 L 5.046875 0 L 0.390625 -12.34375 L 2.109375 -12.34375 L 5.984375 -1.703125 L 9.875 -12.34375 Z M 11.578125 -12.34375 " />
            </g>
        </g>
    </g>
    <g fill="#fff5dc" fill-opacity="1">
        <g transform="translate(495.508152, 92.961803)">
            <g />
        </g>
    </g>
    <g fill="#fff5dc" fill-opacity="1">
        <g transform="translate(500.257833, 92.961803)">
            <g>
                <path
                    d="M 9.625 -8.734375 C 9.625 -7.703125 9.269531 -6.847656 8.5625 -6.171875 C 7.863281 -5.492188 6.789062 -5.15625 5.34375 -5.15625 L 2.984375 -5.15625 L 2.984375 0 L 1.359375 0 L 1.359375 -12.34375 L 5.34375 -12.34375 C 6.738281 -12.34375 7.800781 -12.003906 8.53125 -11.328125 C 9.257812 -10.660156 9.625 -9.796875 9.625 -8.734375 Z M 5.34375 -6.484375 C 6.25 -6.484375 6.910156 -6.675781 7.328125 -7.0625 C 7.753906 -7.457031 7.96875 -8.015625 7.96875 -8.734375 C 7.96875 -10.253906 7.09375 -11.015625 5.34375 -11.015625 L 2.984375 -11.015625 L 2.984375 -6.484375 Z M 5.34375 -6.484375 " />
            </g>
        </g>
    </g>
    <g fill="#fff5dc" fill-opacity="1">
        <g transform="translate(510.536994, 92.961803)">
            <g>
                <path
                    d="M 9.96875 -9.703125 L 9.96875 0 L 8.359375 0 L 8.359375 -1.4375 C 8.054688 -0.9375 7.628906 -0.546875 7.078125 -0.265625 C 6.523438 0.00390625 5.921875 0.140625 5.265625 0.140625 C 4.503906 0.140625 3.820312 -0.015625 3.21875 -0.328125 C 2.625 -0.640625 2.148438 -1.109375 1.796875 -1.734375 C 1.453125 -2.359375 1.28125 -3.117188 1.28125 -4.015625 L 1.28125 -9.703125 L 2.875 -9.703125 L 2.875 -4.234375 C 2.875 -3.273438 3.113281 -2.539062 3.59375 -2.03125 C 4.082031 -1.519531 4.742188 -1.265625 5.578125 -1.265625 C 6.441406 -1.265625 7.117188 -1.53125 7.609375 -2.0625 C 8.109375 -2.59375 8.359375 -3.363281 8.359375 -4.375 L 8.359375 -9.703125 Z M 9.96875 -9.703125 " />
            </g>
        </g>
    </g>
    <g fill="#fff5dc" fill-opacity="1">
        <g transform="translate(521.897239, 92.961803)">
            <g>
                <path
                    d="M 2.984375 -7.90625 C 3.304688 -8.476562 3.785156 -8.945312 4.421875 -9.3125 C 5.066406 -9.6875 5.796875 -9.875 6.609375 -9.875 C 7.484375 -9.875 8.269531 -9.664062 8.96875 -9.25 C 9.664062 -8.832031 10.210938 -8.25 10.609375 -7.5 C 11.015625 -6.75 11.21875 -5.878906 11.21875 -4.890625 C 11.21875 -3.910156 11.015625 -3.035156 10.609375 -2.265625 C 10.210938 -1.492188 9.660156 -0.894531 8.953125 -0.46875 C 8.253906 -0.0507812 7.472656 0.15625 6.609375 0.15625 C 5.765625 0.15625 5.023438 -0.0234375 4.390625 -0.390625 C 3.765625 -0.753906 3.296875 -1.222656 2.984375 -1.796875 L 2.984375 0 L 1.359375 0 L 1.359375 -13.109375 L 2.984375 -13.109375 Z M 9.5625 -4.890625 C 9.5625 -5.617188 9.414062 -6.253906 9.125 -6.796875 C 8.832031 -7.347656 8.429688 -7.765625 7.921875 -8.046875 C 7.421875 -8.328125 6.867188 -8.46875 6.265625 -8.46875 C 5.679688 -8.46875 5.132812 -8.320312 4.625 -8.03125 C 4.125 -7.738281 3.722656 -7.316406 3.421875 -6.765625 C 3.128906 -6.222656 2.984375 -5.59375 2.984375 -4.875 C 2.984375 -4.144531 3.128906 -3.503906 3.421875 -2.953125 C 3.722656 -2.398438 4.125 -1.976562 4.625 -1.6875 C 5.132812 -1.40625 5.679688 -1.265625 6.265625 -1.265625 C 6.867188 -1.265625 7.421875 -1.40625 7.921875 -1.6875 C 8.429688 -1.976562 8.832031 -2.398438 9.125 -2.953125 C 9.414062 -3.503906 9.5625 -4.148438 9.5625 -4.890625 Z M 9.5625 -4.890625 " />
            </g>
        </g>
    </g>
    <g fill="#fff5dc" fill-opacity="1">
        <g transform="translate(533.895505, 92.961803)">
            <g>
                <path
                    d="M 2.984375 -13.109375 L 2.984375 0 L 1.359375 0 L 1.359375 -13.109375 Z M 2.984375 -13.109375 " />
            </g>
        </g>
    </g>
    <g fill="#fff5dc" fill-opacity="1">
        <g transform="translate(538.273007, 92.961803)">
            <g>
                <path
                    d="M 2.203125 -11.28125 C 1.890625 -11.28125 1.625 -11.382812 1.40625 -11.59375 C 1.195312 -11.8125 1.09375 -12.078125 1.09375 -12.390625 C 1.09375 -12.691406 1.195312 -12.945312 1.40625 -13.15625 C 1.625 -13.375 1.890625 -13.484375 2.203125 -13.484375 C 2.492188 -13.484375 2.742188 -13.375 2.953125 -13.15625 C 3.160156 -12.945312 3.265625 -12.691406 3.265625 -12.390625 C 3.265625 -12.078125 3.160156 -11.8125 2.953125 -11.59375 C 2.742188 -11.382812 2.492188 -11.28125 2.203125 -11.28125 Z M 2.984375 -9.703125 L 2.984375 0 L 1.359375 0 L 1.359375 -9.703125 Z M 2.984375 -9.703125 " />
            </g>
        </g>
    </g>
    <g fill="#fff5dc" fill-opacity="1">
        <g transform="translate(542.650508, 92.961803)">
            <g>
                <path
                    d="M 0.765625 -4.875 C 0.765625 -5.875 0.960938 -6.75 1.359375 -7.5 C 1.765625 -8.25 2.320312 -8.832031 3.03125 -9.25 C 3.75 -9.664062 4.570312 -9.875 5.5 -9.875 C 6.6875 -9.875 7.664062 -9.582031 8.4375 -9 C 9.21875 -8.425781 9.726562 -7.625 9.96875 -6.59375 L 8.234375 -6.59375 C 8.066406 -7.1875 7.742188 -7.648438 7.265625 -7.984375 C 6.796875 -8.328125 6.207031 -8.5 5.5 -8.5 C 4.570312 -8.5 3.820312 -8.179688 3.25 -7.546875 C 2.6875 -6.921875 2.40625 -6.03125 2.40625 -4.875 C 2.40625 -3.707031 2.6875 -2.800781 3.25 -2.15625 C 3.820312 -1.519531 4.570312 -1.203125 5.5 -1.203125 C 6.207031 -1.203125 6.796875 -1.367188 7.265625 -1.703125 C 7.734375 -2.035156 8.054688 -2.507812 8.234375 -3.125 L 9.96875 -3.125 C 9.707031 -2.125 9.1875 -1.328125 8.40625 -0.734375 C 7.632812 -0.140625 6.664062 0.15625 5.5 0.15625 C 4.570312 0.15625 3.75 -0.046875 3.03125 -0.453125 C 2.320312 -0.867188 1.765625 -1.453125 1.359375 -2.203125 C 0.960938 -2.960938 0.765625 -3.851562 0.765625 -4.875 Z M 0.765625 -4.875 " />
            </g>
        </g>
    </g>
    <g fill="#fff5dc" fill-opacity="1">
        <g transform="translate(553.425899, 92.961803)">
            <g />
        </g>
    </g>
    <g fill="#fff5dc" fill-opacity="1">
        <g transform="translate(558.175579, 92.961803)">
            <g>
                <path
                    d="M 5.28125 0.125 C 4.46875 0.125 3.738281 -0.0195312 3.09375 -0.3125 C 2.445312 -0.601562 1.941406 -1.003906 1.578125 -1.515625 C 1.210938 -2.023438 1.023438 -2.617188 1.015625 -3.296875 L 2.734375 -3.296875 C 2.785156 -2.710938 3.019531 -2.222656 3.4375 -1.828125 C 3.863281 -1.429688 4.476562 -1.234375 5.28125 -1.234375 C 6.050781 -1.234375 6.65625 -1.425781 7.09375 -1.8125 C 7.539062 -2.195312 7.765625 -2.691406 7.765625 -3.296875 C 7.765625 -3.765625 7.632812 -4.144531 7.375 -4.4375 C 7.113281 -4.738281 6.785156 -4.960938 6.390625 -5.109375 C 6.003906 -5.265625 5.476562 -5.429688 4.8125 -5.609375 C 4 -5.828125 3.347656 -6.039062 2.859375 -6.25 C 2.367188 -6.46875 1.945312 -6.800781 1.59375 -7.25 C 1.25 -7.707031 1.078125 -8.320312 1.078125 -9.09375 C 1.078125 -9.757812 1.25 -10.351562 1.59375 -10.875 C 1.9375 -11.394531 2.414062 -11.796875 3.03125 -12.078125 C 3.65625 -12.367188 4.367188 -12.515625 5.171875 -12.515625 C 6.328125 -12.515625 7.273438 -12.222656 8.015625 -11.640625 C 8.753906 -11.054688 9.171875 -10.289062 9.265625 -9.34375 L 7.5 -9.34375 C 7.4375 -9.8125 7.1875 -10.222656 6.75 -10.578125 C 6.3125 -10.941406 5.734375 -11.125 5.015625 -11.125 C 4.335938 -11.125 3.785156 -10.945312 3.359375 -10.59375 C 2.941406 -10.25 2.734375 -9.765625 2.734375 -9.140625 C 2.734375 -8.691406 2.859375 -8.328125 3.109375 -8.046875 C 3.359375 -7.765625 3.671875 -7.546875 4.046875 -7.390625 C 4.421875 -7.242188 4.941406 -7.078125 5.609375 -6.890625 C 6.429688 -6.671875 7.085938 -6.453125 7.578125 -6.234375 C 8.078125 -6.015625 8.503906 -5.675781 8.859375 -5.21875 C 9.210938 -4.757812 9.390625 -4.140625 9.390625 -3.359375 C 9.390625 -2.765625 9.226562 -2.203125 8.90625 -1.671875 C 8.59375 -1.140625 8.125 -0.707031 7.5 -0.375 C 6.875 -0.0390625 6.132812 0.125 5.28125 0.125 Z M 5.28125 0.125 " />
            </g>
        </g>
    </g>
    <g fill="#fff5dc" fill-opacity="1">
        <g transform="translate(568.596533, 92.961803)">
            <g>
                <path
                    d="M 0.765625 -4.875 C 0.765625 -5.875 0.960938 -6.75 1.359375 -7.5 C 1.765625 -8.25 2.320312 -8.832031 3.03125 -9.25 C 3.75 -9.664062 4.570312 -9.875 5.5 -9.875 C 6.6875 -9.875 7.664062 -9.582031 8.4375 -9 C 9.21875 -8.425781 9.726562 -7.625 9.96875 -6.59375 L 8.234375 -6.59375 C 8.066406 -7.1875 7.742188 -7.648438 7.265625 -7.984375 C 6.796875 -8.328125 6.207031 -8.5 5.5 -8.5 C 4.570312 -8.5 3.820312 -8.179688 3.25 -7.546875 C 2.6875 -6.921875 2.40625 -6.03125 2.40625 -4.875 C 2.40625 -3.707031 2.6875 -2.800781 3.25 -2.15625 C 3.820312 -1.519531 4.570312 -1.203125 5.5 -1.203125 C 6.207031 -1.203125 6.796875 -1.367188 7.265625 -1.703125 C 7.734375 -2.035156 8.054688 -2.507812 8.234375 -3.125 L 9.96875 -3.125 C 9.707031 -2.125 9.1875 -1.328125 8.40625 -0.734375 C 7.632812 -0.140625 6.664062 0.15625 5.5 0.15625 C 4.570312 0.15625 3.75 -0.046875 3.03125 -0.453125 C 2.320312 -0.867188 1.765625 -1.453125 1.359375 -2.203125 C 0.960938 -2.960938 0.765625 -3.851562 0.765625 -4.875 Z M 0.765625 -4.875 " />
            </g>
        </g>
    </g>
    <g fill="#fff5dc" fill-opacity="1">
        <g transform="translate(579.371939, 92.961803)">
            <g>
                <path
                    d="M 6.1875 -9.890625 C 6.914062 -9.890625 7.570312 -9.734375 8.15625 -9.421875 C 8.75 -9.109375 9.210938 -8.632812 9.546875 -8 C 9.890625 -7.375 10.0625 -6.613281 10.0625 -5.71875 L 10.0625 0 L 8.46875 0 L 8.46875 -5.5 C 8.46875 -6.46875 8.222656 -7.207031 7.734375 -7.71875 C 7.253906 -8.226562 6.597656 -8.484375 5.765625 -8.484375 C 4.910156 -8.484375 4.234375 -8.21875 3.734375 -7.6875 C 3.234375 -7.15625 2.984375 -6.382812 2.984375 -5.375 L 2.984375 0 L 1.359375 0 L 1.359375 -13.109375 L 2.984375 -13.109375 L 2.984375 -8.328125 C 3.296875 -8.828125 3.734375 -9.210938 4.296875 -9.484375 C 4.859375 -9.753906 5.488281 -9.890625 6.1875 -9.890625 Z M 6.1875 -9.890625 " />
            </g>
        </g>
    </g>
    <g fill="#fff5dc" fill-opacity="1">
        <g transform="translate(590.732198, 92.961803)">
            <g>
                <path
                    d="M 5.59375 0.15625 C 4.6875 0.15625 3.863281 -0.046875 3.125 -0.453125 C 2.382812 -0.867188 1.804688 -1.457031 1.390625 -2.21875 C 0.972656 -2.976562 0.765625 -3.863281 0.765625 -4.875 C 0.765625 -5.863281 0.976562 -6.738281 1.40625 -7.5 C 1.84375 -8.257812 2.429688 -8.84375 3.171875 -9.25 C 3.910156 -9.664062 4.742188 -9.875 5.671875 -9.875 C 6.585938 -9.875 7.414062 -9.664062 8.15625 -9.25 C 8.90625 -8.84375 9.492188 -8.257812 9.921875 -7.5 C 10.359375 -6.75 10.578125 -5.875 10.578125 -4.875 C 10.578125 -3.863281 10.351562 -2.976562 9.90625 -2.21875 C 9.46875 -1.457031 8.867188 -0.867188 8.109375 -0.453125 C 7.359375 -0.046875 6.519531 0.15625 5.59375 0.15625 Z M 5.59375 -1.265625 C 6.175781 -1.265625 6.71875 -1.398438 7.21875 -1.671875 C 7.726562 -1.941406 8.140625 -2.347656 8.453125 -2.890625 C 8.773438 -3.429688 8.9375 -4.09375 8.9375 -4.875 C 8.9375 -5.65625 8.78125 -6.316406 8.46875 -6.859375 C 8.164062 -7.398438 7.765625 -7.800781 7.265625 -8.0625 C 6.765625 -8.332031 6.226562 -8.46875 5.65625 -8.46875 C 5.0625 -8.46875 4.519531 -8.332031 4.03125 -8.0625 C 3.539062 -7.800781 3.144531 -7.398438 2.84375 -6.859375 C 2.550781 -6.316406 2.40625 -5.65625 2.40625 -4.875 C 2.40625 -4.082031 2.550781 -3.414062 2.84375 -2.875 C 3.132812 -2.332031 3.519531 -1.925781 4 -1.65625 C 4.488281 -1.394531 5.019531 -1.265625 5.59375 -1.265625 Z M 5.59375 -1.265625 " />
            </g>
        </g>
    </g>
    <g fill="#fff5dc" fill-opacity="1">
        <g transform="translate(602.092456, 92.961803)">
            <g>
                <path
                    d="M 5.59375 0.15625 C 4.6875 0.15625 3.863281 -0.046875 3.125 -0.453125 C 2.382812 -0.867188 1.804688 -1.457031 1.390625 -2.21875 C 0.972656 -2.976562 0.765625 -3.863281 0.765625 -4.875 C 0.765625 -5.863281 0.976562 -6.738281 1.40625 -7.5 C 1.84375 -8.257812 2.429688 -8.84375 3.171875 -9.25 C 3.910156 -9.664062 4.742188 -9.875 5.671875 -9.875 C 6.585938 -9.875 7.414062 -9.664062 8.15625 -9.25 C 8.90625 -8.84375 9.492188 -8.257812 9.921875 -7.5 C 10.359375 -6.75 10.578125 -5.875 10.578125 -4.875 C 10.578125 -3.863281 10.351562 -2.976562 9.90625 -2.21875 C 9.46875 -1.457031 8.867188 -0.867188 8.109375 -0.453125 C 7.359375 -0.046875 6.519531 0.15625 5.59375 0.15625 Z M 5.59375 -1.265625 C 6.175781 -1.265625 6.71875 -1.398438 7.21875 -1.671875 C 7.726562 -1.941406 8.140625 -2.347656 8.453125 -2.890625 C 8.773438 -3.429688 8.9375 -4.09375 8.9375 -4.875 C 8.9375 -5.65625 8.78125 -6.316406 8.46875 -6.859375 C 8.164062 -7.398438 7.765625 -7.800781 7.265625 -8.0625 C 6.765625 -8.332031 6.226562 -8.46875 5.65625 -8.46875 C 5.0625 -8.46875 4.519531 -8.332031 4.03125 -8.0625 C 3.539062 -7.800781 3.144531 -7.398438 2.84375 -6.859375 C 2.550781 -6.316406 2.40625 -5.65625 2.40625 -4.875 C 2.40625 -4.082031 2.550781 -3.414062 2.84375 -2.875 C 3.132812 -2.332031 3.519531 -1.925781 4 -1.65625 C 4.488281 -1.394531 5.019531 -1.265625 5.59375 -1.265625 Z M 5.59375 -1.265625 " />
            </g>
        </g>
    </g>
    <g fill="#fff5dc" fill-opacity="1">
        <g transform="translate(613.452715, 92.961803)">
            <g>
                <path
                    d="M 2.984375 -13.109375 L 2.984375 0 L 1.359375 0 L 1.359375 -13.109375 Z M 2.984375 -13.109375 " />
            </g>
        </g>
    </g>
    <g fill="#fff5dc" fill-opacity="1">
        <g transform="translate(617.830217, 92.961803)">
            <g>
                <path
                    d="M 3.03125 -2.234375 L 1.046875 2.53125 L -0.03125 2.53125 L 1.265625 -2.234375 Z M 3.03125 -2.234375 " />
            </g>
        </g>
    </g>
    <g fill="#fff5dc" fill-opacity="1">
        <g transform="translate(621.357051, 92.961803)">
            <g />
        </g>
    </g>
    <g fill="#fff5dc" fill-opacity="1">
        <g transform="translate(626.106732, 92.961803)">
            <g>
                <path
                    d="M 7.546875 -6.359375 C 7.992188 -6.285156 8.40625 -6.101562 8.78125 -5.8125 C 9.15625 -5.519531 9.453125 -5.15625 9.671875 -4.71875 C 9.890625 -4.28125 10 -3.8125 10 -3.3125 C 10 -2.6875 9.835938 -2.125 9.515625 -1.625 C 9.191406 -1.125 8.726562 -0.726562 8.125 -0.4375 C 7.519531 -0.144531 6.800781 0 5.96875 0 L 1.359375 0 L 1.359375 -12.34375 L 5.796875 -12.34375 C 6.628906 -12.34375 7.34375 -12.203125 7.9375 -11.921875 C 8.53125 -11.648438 8.972656 -11.273438 9.265625 -10.796875 C 9.554688 -10.328125 9.703125 -9.800781 9.703125 -9.21875 C 9.703125 -8.476562 9.503906 -7.867188 9.109375 -7.390625 C 8.710938 -6.921875 8.191406 -6.578125 7.546875 -6.359375 Z M 2.984375 -7.015625 L 5.6875 -7.015625 C 6.445312 -7.015625 7.03125 -7.191406 7.4375 -7.546875 C 7.851562 -7.898438 8.0625 -8.390625 8.0625 -9.015625 C 8.0625 -9.640625 7.851562 -10.128906 7.4375 -10.484375 C 7.03125 -10.835938 6.4375 -11.015625 5.65625 -11.015625 L 2.984375 -11.015625 Z M 5.828125 -1.328125 C 6.628906 -1.328125 7.253906 -1.515625 7.703125 -1.890625 C 8.148438 -2.273438 8.375 -2.800781 8.375 -3.46875 C 8.375 -4.15625 8.140625 -4.695312 7.671875 -5.09375 C 7.203125 -5.488281 6.570312 -5.6875 5.78125 -5.6875 L 2.984375 -5.6875 L 2.984375 -1.328125 Z M 5.828125 -1.328125 " />
            </g>
        </g>
    </g>
    <g fill="#fff5dc" fill-opacity="1">
        <g transform="translate(636.988474, 92.961803)">
            <g>
                <path
                    d="M 0.765625 -4.890625 C 0.765625 -5.878906 0.960938 -6.75 1.359375 -7.5 C 1.765625 -8.25 2.316406 -8.832031 3.015625 -9.25 C 3.722656 -9.664062 4.507812 -9.875 5.375 -9.875 C 6.21875 -9.875 6.953125 -9.6875 7.578125 -9.3125 C 8.203125 -8.945312 8.671875 -8.488281 8.984375 -7.9375 L 8.984375 -9.703125 L 10.609375 -9.703125 L 10.609375 0 L 8.984375 0 L 8.984375 -1.8125 C 8.660156 -1.238281 8.179688 -0.765625 7.546875 -0.390625 C 6.921875 -0.0234375 6.1875 0.15625 5.34375 0.15625 C 4.488281 0.15625 3.710938 -0.0507812 3.015625 -0.46875 C 2.316406 -0.894531 1.765625 -1.492188 1.359375 -2.265625 C 0.960938 -3.035156 0.765625 -3.910156 0.765625 -4.890625 Z M 8.984375 -4.875 C 8.984375 -5.601562 8.832031 -6.238281 8.53125 -6.78125 C 8.238281 -7.320312 7.84375 -7.738281 7.34375 -8.03125 C 6.84375 -8.320312 6.289062 -8.46875 5.6875 -8.46875 C 5.082031 -8.46875 4.53125 -8.328125 4.03125 -8.046875 C 3.539062 -7.765625 3.144531 -7.347656 2.84375 -6.796875 C 2.550781 -6.253906 2.40625 -5.617188 2.40625 -4.890625 C 2.40625 -4.148438 2.550781 -3.503906 2.84375 -2.953125 C 3.144531 -2.398438 3.539062 -1.976562 4.03125 -1.6875 C 4.53125 -1.40625 5.082031 -1.265625 5.6875 -1.265625 C 6.289062 -1.265625 6.84375 -1.40625 7.34375 -1.6875 C 7.84375 -1.976562 8.238281 -2.398438 8.53125 -2.953125 C 8.832031 -3.503906 8.984375 -4.144531 8.984375 -4.875 Z M 8.984375 -4.875 " />
            </g>
        </g>
    </g>
    <g fill="#fff5dc" fill-opacity="1">
        <g transform="translate(648.986755, 92.961803)">
            <g>
                <path
                    d="M 6.1875 -9.890625 C 6.914062 -9.890625 7.570312 -9.734375 8.15625 -9.421875 C 8.75 -9.109375 9.210938 -8.632812 9.546875 -8 C 9.890625 -7.375 10.0625 -6.613281 10.0625 -5.71875 L 10.0625 0 L 8.46875 0 L 8.46875 -5.5 C 8.46875 -6.46875 8.222656 -7.207031 7.734375 -7.71875 C 7.253906 -8.226562 6.597656 -8.484375 5.765625 -8.484375 C 4.910156 -8.484375 4.234375 -8.21875 3.734375 -7.6875 C 3.234375 -7.15625 2.984375 -6.382812 2.984375 -5.375 L 2.984375 0 L 1.359375 0 L 1.359375 -13.109375 L 2.984375 -13.109375 L 2.984375 -8.328125 C 3.296875 -8.828125 3.734375 -9.210938 4.296875 -9.484375 C 4.859375 -9.753906 5.488281 -9.890625 6.1875 -9.890625 Z M 6.1875 -9.890625 " />
            </g>
        </g>
    </g>
    <g fill="#fff5dc" fill-opacity="1">
        <g transform="translate(660.347014, 92.961803)">
            <g>
                <path
                    d="M 0.765625 -4.890625 C 0.765625 -5.878906 0.960938 -6.75 1.359375 -7.5 C 1.765625 -8.25 2.316406 -8.832031 3.015625 -9.25 C 3.722656 -9.664062 4.507812 -9.875 5.375 -9.875 C 6.21875 -9.875 6.953125 -9.6875 7.578125 -9.3125 C 8.203125 -8.945312 8.671875 -8.488281 8.984375 -7.9375 L 8.984375 -9.703125 L 10.609375 -9.703125 L 10.609375 0 L 8.984375 0 L 8.984375 -1.8125 C 8.660156 -1.238281 8.179688 -0.765625 7.546875 -0.390625 C 6.921875 -0.0234375 6.1875 0.15625 5.34375 0.15625 C 4.488281 0.15625 3.710938 -0.0507812 3.015625 -0.46875 C 2.316406 -0.894531 1.765625 -1.492188 1.359375 -2.265625 C 0.960938 -3.035156 0.765625 -3.910156 0.765625 -4.890625 Z M 8.984375 -4.875 C 8.984375 -5.601562 8.832031 -6.238281 8.53125 -6.78125 C 8.238281 -7.320312 7.84375 -7.738281 7.34375 -8.03125 C 6.84375 -8.320312 6.289062 -8.46875 5.6875 -8.46875 C 5.082031 -8.46875 4.53125 -8.328125 4.03125 -8.046875 C 3.539062 -7.765625 3.144531 -7.347656 2.84375 -6.796875 C 2.550781 -6.253906 2.40625 -5.617188 2.40625 -4.890625 C 2.40625 -4.148438 2.550781 -3.503906 2.84375 -2.953125 C 3.144531 -2.398438 3.539062 -1.976562 4.03125 -1.6875 C 4.53125 -1.40625 5.082031 -1.265625 5.6875 -1.265625 C 6.289062 -1.265625 6.84375 -1.40625 7.34375 -1.6875 C 7.84375 -1.976562 8.238281 -2.398438 8.53125 -2.953125 C 8.832031 -3.503906 8.984375 -4.144531 8.984375 -4.875 Z M 8.984375 -4.875 " />
            </g>
        </g>
    </g>
    <g fill="#fff5dc" fill-opacity="1">
        <g transform="translate(672.345295, 92.961803)">
            <g>
                <path
                    d="M 2.984375 -8.140625 C 3.265625 -8.691406 3.664062 -9.117188 4.1875 -9.421875 C 4.71875 -9.734375 5.359375 -9.890625 6.109375 -9.890625 L 6.109375 -8.21875 L 5.6875 -8.21875 C 3.882812 -8.21875 2.984375 -7.238281 2.984375 -5.28125 L 2.984375 0 L 1.359375 0 L 1.359375 -9.703125 L 2.984375 -9.703125 Z M 2.984375 -8.140625 " />
            </g>
        </g>
    </g>
    <g fill="#fff5dc" fill-opacity="1">
        <g transform="translate(678.973587, 92.961803)">
            <g>
                <path
                    d="M 0.765625 -4.890625 C 0.765625 -5.878906 0.960938 -6.75 1.359375 -7.5 C 1.765625 -8.25 2.316406 -8.832031 3.015625 -9.25 C 3.722656 -9.664062 4.507812 -9.875 5.375 -9.875 C 6.21875 -9.875 6.953125 -9.6875 7.578125 -9.3125 C 8.203125 -8.945312 8.671875 -8.488281 8.984375 -7.9375 L 8.984375 -9.703125 L 10.609375 -9.703125 L 10.609375 0 L 8.984375 0 L 8.984375 -1.8125 C 8.660156 -1.238281 8.179688 -0.765625 7.546875 -0.390625 C 6.921875 -0.0234375 6.1875 0.15625 5.34375 0.15625 C 4.488281 0.15625 3.710938 -0.0507812 3.015625 -0.46875 C 2.316406 -0.894531 1.765625 -1.492188 1.359375 -2.265625 C 0.960938 -3.035156 0.765625 -3.910156 0.765625 -4.890625 Z M 8.984375 -4.875 C 8.984375 -5.601562 8.832031 -6.238281 8.53125 -6.78125 C 8.238281 -7.320312 7.84375 -7.738281 7.34375 -8.03125 C 6.84375 -8.320312 6.289062 -8.46875 5.6875 -8.46875 C 5.082031 -8.46875 4.53125 -8.328125 4.03125 -8.046875 C 3.539062 -7.765625 3.144531 -7.347656 2.84375 -6.796875 C 2.550781 -6.253906 2.40625 -5.617188 2.40625 -4.890625 C 2.40625 -4.148438 2.550781 -3.503906 2.84375 -2.953125 C 3.144531 -2.398438 3.539062 -1.976562 4.03125 -1.6875 C 4.53125 -1.40625 5.082031 -1.265625 5.6875 -1.265625 C 6.289062 -1.265625 6.84375 -1.40625 7.34375 -1.6875 C 7.84375 -1.976562 8.238281 -2.398438 8.53125 -2.953125 C 8.832031 -3.503906 8.984375 -4.144531 8.984375 -4.875 Z M 8.984375 -4.875 " />
            </g>
        </g>
    </g>
    <g fill="#fff5dc" fill-opacity="1">
        <g transform="translate(690.971868, 92.961803)">
            <g>
                <path
                    d="M 5.375 -9.875 C 6.207031 -9.875 6.9375 -9.6875 7.5625 -9.3125 C 8.195312 -8.945312 8.671875 -8.488281 8.984375 -7.9375 L 8.984375 -9.703125 L 10.609375 -9.703125 L 10.609375 0.21875 C 10.609375 1.101562 10.421875 1.890625 10.046875 2.578125 C 9.671875 3.265625 9.128906 3.800781 8.421875 4.1875 C 7.722656 4.582031 6.90625 4.78125 5.96875 4.78125 C 4.695312 4.78125 3.632812 4.476562 2.78125 3.875 C 1.925781 3.28125 1.425781 2.460938 1.28125 1.421875 L 2.875 1.421875 C 3.050781 2.003906 3.414062 2.476562 3.96875 2.84375 C 4.519531 3.207031 5.1875 3.390625 5.96875 3.390625 C 6.851562 3.390625 7.578125 3.109375 8.140625 2.546875 C 8.703125 1.992188 8.984375 1.21875 8.984375 0.21875 L 8.984375 -1.828125 C 8.660156 -1.253906 8.1875 -0.78125 7.5625 -0.40625 C 6.9375 -0.03125 6.207031 0.15625 5.375 0.15625 C 4.507812 0.15625 3.722656 -0.0507812 3.015625 -0.46875 C 2.316406 -0.894531 1.765625 -1.492188 1.359375 -2.265625 C 0.960938 -3.035156 0.765625 -3.910156 0.765625 -4.890625 C 0.765625 -5.878906 0.960938 -6.75 1.359375 -7.5 C 1.765625 -8.25 2.316406 -8.832031 3.015625 -9.25 C 3.722656 -9.664062 4.507812 -9.875 5.375 -9.875 Z M 8.984375 -4.875 C 8.984375 -5.601562 8.832031 -6.238281 8.53125 -6.78125 C 8.238281 -7.320312 7.84375 -7.738281 7.34375 -8.03125 C 6.84375 -8.320312 6.289062 -8.46875 5.6875 -8.46875 C 5.082031 -8.46875 4.53125 -8.328125 4.03125 -8.046875 C 3.539062 -7.765625 3.144531 -7.347656 2.84375 -6.796875 C 2.550781 -6.253906 2.40625 -5.617188 2.40625 -4.890625 C 2.40625 -4.148438 2.550781 -3.503906 2.84375 -2.953125 C 3.144531 -2.398438 3.539062 -1.976562 4.03125 -1.6875 C 4.53125 -1.40625 5.082031 -1.265625 5.6875 -1.265625 C 6.289062 -1.265625 6.84375 -1.40625 7.34375 -1.6875 C 7.84375 -1.976562 8.238281 -2.398438 8.53125 -2.953125 C 8.832031 -3.503906 8.984375 -4.144531 8.984375 -4.875 Z M 8.984375 -4.875 " />
            </g>
        </g>
    </g>
    <g fill="#fff5dc" fill-opacity="1">
        <g transform="translate(702.970149, 92.961803)">
            <g>
                <path
                    d="M 5.59375 0.15625 C 4.6875 0.15625 3.863281 -0.046875 3.125 -0.453125 C 2.382812 -0.867188 1.804688 -1.457031 1.390625 -2.21875 C 0.972656 -2.976562 0.765625 -3.863281 0.765625 -4.875 C 0.765625 -5.863281 0.976562 -6.738281 1.40625 -7.5 C 1.84375 -8.257812 2.429688 -8.84375 3.171875 -9.25 C 3.910156 -9.664062 4.742188 -9.875 5.671875 -9.875 C 6.585938 -9.875 7.414062 -9.664062 8.15625 -9.25 C 8.90625 -8.84375 9.492188 -8.257812 9.921875 -7.5 C 10.359375 -6.75 10.578125 -5.875 10.578125 -4.875 C 10.578125 -3.863281 10.351562 -2.976562 9.90625 -2.21875 C 9.46875 -1.457031 8.867188 -0.867188 8.109375 -0.453125 C 7.359375 -0.046875 6.519531 0.15625 5.59375 0.15625 Z M 5.59375 -1.265625 C 6.175781 -1.265625 6.71875 -1.398438 7.21875 -1.671875 C 7.726562 -1.941406 8.140625 -2.347656 8.453125 -2.890625 C 8.773438 -3.429688 8.9375 -4.09375 8.9375 -4.875 C 8.9375 -5.65625 8.78125 -6.316406 8.46875 -6.859375 C 8.164062 -7.398438 7.765625 -7.800781 7.265625 -8.0625 C 6.765625 -8.332031 6.226562 -8.46875 5.65625 -8.46875 C 5.0625 -8.46875 4.519531 -8.332031 4.03125 -8.0625 C 3.539062 -7.800781 3.144531 -7.398438 2.84375 -6.859375 C 2.550781 -6.316406 2.40625 -5.65625 2.40625 -4.875 C 2.40625 -4.082031 2.550781 -3.414062 2.84375 -2.875 C 3.132812 -2.332031 3.519531 -1.925781 4 -1.65625 C 4.488281 -1.394531 5.019531 -1.265625 5.59375 -1.265625 Z M 5.59375 -1.265625 " />
            </g>
        </g>
    </g>
    <g fill="#fff5dc" fill-opacity="1">
        <g transform="translate(714.330408, 92.961803)">
            <g>
                <path
                    d="M 2.984375 -8.140625 C 3.265625 -8.691406 3.664062 -9.117188 4.1875 -9.421875 C 4.71875 -9.734375 5.359375 -9.890625 6.109375 -9.890625 L 6.109375 -8.21875 L 5.6875 -8.21875 C 3.882812 -8.21875 2.984375 -7.238281 2.984375 -5.28125 L 2.984375 0 L 1.359375 0 L 1.359375 -9.703125 L 2.984375 -9.703125 Z M 2.984375 -8.140625 " />
            </g>
        </g>
    </g>
    <g fill="#fff5dc" fill-opacity="1">
        <g transform="translate(720.958699, 92.961803)">
            <g>
                <path
                    d="M 0.765625 -4.890625 C 0.765625 -5.878906 0.960938 -6.75 1.359375 -7.5 C 1.765625 -8.25 2.316406 -8.832031 3.015625 -9.25 C 3.722656 -9.664062 4.507812 -9.875 5.375 -9.875 C 6.21875 -9.875 6.953125 -9.6875 7.578125 -9.3125 C 8.203125 -8.945312 8.671875 -8.488281 8.984375 -7.9375 L 8.984375 -9.703125 L 10.609375 -9.703125 L 10.609375 0 L 8.984375 0 L 8.984375 -1.8125 C 8.660156 -1.238281 8.179688 -0.765625 7.546875 -0.390625 C 6.921875 -0.0234375 6.1875 0.15625 5.34375 0.15625 C 4.488281 0.15625 3.710938 -0.0507812 3.015625 -0.46875 C 2.316406 -0.894531 1.765625 -1.492188 1.359375 -2.265625 C 0.960938 -3.035156 0.765625 -3.910156 0.765625 -4.890625 Z M 8.984375 -4.875 C 8.984375 -5.601562 8.832031 -6.238281 8.53125 -6.78125 C 8.238281 -7.320312 7.84375 -7.738281 7.34375 -8.03125 C 6.84375 -8.320312 6.289062 -8.46875 5.6875 -8.46875 C 5.082031 -8.46875 4.53125 -8.328125 4.03125 -8.046875 C 3.539062 -7.765625 3.144531 -7.347656 2.84375 -6.796875 C 2.550781 -6.253906 2.40625 -5.617188 2.40625 -4.890625 C 2.40625 -4.148438 2.550781 -3.503906 2.84375 -2.953125 C 3.144531 -2.398438 3.539062 -1.976562 4.03125 -1.6875 C 4.53125 -1.40625 5.082031 -1.265625 5.6875 -1.265625 C 6.289062 -1.265625 6.84375 -1.40625 7.34375 -1.6875 C 7.84375 -1.976562 8.238281 -2.398438 8.53125 -2.953125 C 8.832031 -3.503906 8.984375 -4.144531 8.984375 -4.875 Z M 8.984375 -4.875 " />
            </g>
        </g>
    </g>
    <g fill="#fff5dc" fill-opacity="1">
        <g transform="translate(732.95698, 92.961803)">
            <g>
                <path
                    d="M 3.03125 -2.234375 L 1.046875 2.53125 L -0.03125 2.53125 L 1.265625 -2.234375 Z M 3.03125 -2.234375 " />
            </g>
        </g>
    </g>
    <g fill="#fff5dc" fill-opacity="1">
        <g transform="translate(736.483814, 92.961803)">
            <g />
        </g>
    </g>
    <g fill="#fff5dc" fill-opacity="1">
        <g transform="translate(741.233495, 92.961803)">
            <g>
                <path
                    d="M 3.4375 -6.65625 C 2.769531 -6.914062 2.257812 -7.296875 1.90625 -7.796875 C 1.550781 -8.296875 1.375 -8.898438 1.375 -9.609375 C 1.375 -10.242188 1.535156 -10.816406 1.859375 -11.328125 C 2.179688 -11.847656 2.65625 -12.253906 3.28125 -12.546875 C 3.914062 -12.847656 4.679688 -13 5.578125 -13 C 6.472656 -13 7.238281 -12.847656 7.875 -12.546875 C 8.507812 -12.253906 8.988281 -11.847656 9.3125 -11.328125 C 9.632812 -10.816406 9.796875 -10.242188 9.796875 -9.609375 C 9.796875 -8.921875 9.613281 -8.316406 9.25 -7.796875 C 8.882812 -7.285156 8.382812 -6.90625 7.75 -6.65625 C 8.476562 -6.4375 9.054688 -6.046875 9.484375 -5.484375 C 9.921875 -4.921875 10.140625 -4.242188 10.140625 -3.453125 C 10.140625 -2.679688 9.945312 -2.007812 9.5625 -1.4375 C 9.1875 -0.863281 8.648438 -0.421875 7.953125 -0.109375 C 7.265625 0.203125 6.472656 0.359375 5.578125 0.359375 C 4.679688 0.359375 3.894531 0.203125 3.21875 -0.109375 C 2.539062 -0.421875 2.007812 -0.863281 1.625 -1.4375 C 1.25 -2.007812 1.0625 -2.679688 1.0625 -3.453125 C 1.0625 -4.242188 1.273438 -4.921875 1.703125 -5.484375 C 2.128906 -6.054688 2.707031 -6.445312 3.4375 -6.65625 Z M 8.234375 -9.40625 C 8.234375 -10.125 8 -10.675781 7.53125 -11.0625 C 7.0625 -11.457031 6.410156 -11.65625 5.578125 -11.65625 C 4.765625 -11.65625 4.117188 -11.457031 3.640625 -11.0625 C 3.171875 -10.675781 2.9375 -10.117188 2.9375 -9.390625 C 2.9375 -8.734375 3.179688 -8.203125 3.671875 -7.796875 C 4.160156 -7.390625 4.796875 -7.1875 5.578125 -7.1875 C 6.367188 -7.1875 7.007812 -7.390625 7.5 -7.796875 C 7.988281 -8.210938 8.234375 -8.75 8.234375 -9.40625 Z M 5.578125 -5.953125 C 4.703125 -5.953125 3.988281 -5.75 3.4375 -5.34375 C 2.882812 -4.9375 2.609375 -4.328125 2.609375 -3.515625 C 2.609375 -2.753906 2.875 -2.144531 3.40625 -1.6875 C 3.945312 -1.226562 4.671875 -1 5.578125 -1 C 6.492188 -1 7.21875 -1.226562 7.75 -1.6875 C 8.28125 -2.144531 8.546875 -2.753906 8.546875 -3.515625 C 8.546875 -4.304688 8.269531 -4.910156 7.71875 -5.328125 C 7.175781 -5.742188 6.460938 -5.953125 5.578125 -5.953125 Z M 5.578125 -5.953125 " />
            </g>
        </g>
    </g>
    <g fill="#fff5dc" fill-opacity="1">
        <g transform="translate(752.434248, 92.961803)">
            <g>
                <path
                    d="M 1.0625 -9.578125 C 1.144531 -10.671875 1.5625 -11.523438 2.3125 -12.140625 C 3.070312 -12.753906 4.054688 -13.0625 5.265625 -13.0625 C 6.066406 -13.0625 6.757812 -12.914062 7.34375 -12.625 C 7.925781 -12.332031 8.367188 -11.9375 8.671875 -11.4375 C 8.972656 -10.945312 9.125 -10.390625 9.125 -9.765625 C 9.125 -9.035156 8.910156 -8.398438 8.484375 -7.859375 C 8.066406 -7.328125 7.523438 -6.988281 6.859375 -6.84375 L 6.859375 -6.75 C 7.628906 -6.5625 8.238281 -6.1875 8.6875 -5.625 C 9.132812 -5.070312 9.359375 -4.347656 9.359375 -3.453125 C 9.359375 -2.773438 9.203125 -2.164062 8.890625 -1.625 C 8.585938 -1.09375 8.128906 -0.671875 7.515625 -0.359375 C 6.898438 -0.0546875 6.160156 0.09375 5.296875 0.09375 C 4.046875 0.09375 3.019531 -0.234375 2.21875 -0.890625 C 1.414062 -1.546875 0.96875 -2.476562 0.875 -3.6875 L 2.421875 -3.6875 C 2.503906 -2.976562 2.796875 -2.398438 3.296875 -1.953125 C 3.796875 -1.503906 4.457031 -1.28125 5.28125 -1.28125 C 6.101562 -1.28125 6.726562 -1.492188 7.15625 -1.921875 C 7.59375 -2.347656 7.8125 -2.90625 7.8125 -3.59375 C 7.8125 -4.476562 7.515625 -5.113281 6.921875 -5.5 C 6.335938 -5.894531 5.445312 -6.09375 4.25 -6.09375 L 3.84375 -6.09375 L 3.84375 -7.4375 L 4.265625 -7.4375 C 5.359375 -7.445312 6.179688 -7.625 6.734375 -7.96875 C 7.285156 -8.320312 7.5625 -8.867188 7.5625 -9.609375 C 7.5625 -10.234375 7.359375 -10.734375 6.953125 -11.109375 C 6.546875 -11.484375 5.960938 -11.671875 5.203125 -11.671875 C 4.472656 -11.671875 3.882812 -11.484375 3.4375 -11.109375 C 2.988281 -10.734375 2.722656 -10.222656 2.640625 -9.578125 Z M 1.0625 -9.578125 " />
            </g>
        </g>
    </g>
    <g fill="#fff5dc" fill-opacity="1">
        <g transform="translate(762.890643, 92.961803)">
            <g>
                <path
                    d="M 0.90625 -1.296875 C 2.40625 -2.492188 3.578125 -3.476562 4.421875 -4.25 C 5.273438 -5.03125 5.992188 -5.84375 6.578125 -6.6875 C 7.160156 -7.53125 7.453125 -8.359375 7.453125 -9.171875 C 7.453125 -9.941406 7.265625 -10.546875 6.890625 -10.984375 C 6.523438 -11.429688 5.929688 -11.65625 5.109375 -11.65625 C 4.296875 -11.65625 3.664062 -11.40625 3.21875 -10.90625 C 2.78125 -10.40625 2.546875 -9.734375 2.515625 -8.890625 L 0.953125 -8.890625 C 1.003906 -10.210938 1.40625 -11.234375 2.15625 -11.953125 C 2.914062 -12.679688 3.890625 -13.046875 5.078125 -13.046875 C 6.296875 -13.046875 7.257812 -12.707031 7.96875 -12.03125 C 8.6875 -11.351562 9.046875 -10.425781 9.046875 -9.25 C 9.046875 -8.269531 8.753906 -7.316406 8.171875 -6.390625 C 7.585938 -5.460938 6.921875 -4.644531 6.171875 -3.9375 C 5.429688 -3.238281 4.484375 -2.421875 3.328125 -1.484375 L 9.421875 -1.484375 L 9.421875 -0.140625 L 0.90625 -0.140625 Z M 0.90625 -1.296875 " />
            </g>
        </g>
    </g>
    <g fill="#fff5dc" fill-opacity="1">
        <g transform="translate(773.098908, 92.961803)">
            <g>
                <path
                    d="M 0.671875 -11.34375 L 0.671875 -12.8125 L 4 -12.8125 L 4 0 L 2.375 0 L 2.375 -11.34375 Z M 0.671875 -11.34375 " />
            </g>
        </g>
    </g>
    <g fill="#fff5dc" fill-opacity="1">
        <g transform="translate(778.787908, 92.961803)">
            <g>
                <path
                    d="M 1.09375 -6.53125 C 1.09375 -8.5625 1.421875 -10.144531 2.078125 -11.28125 C 2.742188 -12.425781 3.90625 -13 5.5625 -13 C 7.207031 -13 8.359375 -12.425781 9.015625 -11.28125 C 9.679688 -10.144531 10.015625 -8.5625 10.015625 -6.53125 C 10.015625 -4.46875 9.679688 -2.863281 9.015625 -1.71875 C 8.359375 -0.570312 7.207031 0 5.5625 0 C 3.90625 0 2.742188 -0.570312 2.078125 -1.71875 C 1.421875 -2.863281 1.09375 -4.46875 1.09375 -6.53125 Z M 8.421875 -6.53125 C 8.421875 -7.5625 8.351562 -8.429688 8.21875 -9.140625 C 8.082031 -9.859375 7.800781 -10.4375 7.375 -10.875 C 6.957031 -11.3125 6.351562 -11.53125 5.5625 -11.53125 C 4.757812 -11.53125 4.144531 -11.3125 3.71875 -10.875 C 3.300781 -10.4375 3.023438 -9.859375 2.890625 -9.140625 C 2.753906 -8.429688 2.6875 -7.5625 2.6875 -6.53125 C 2.6875 -5.46875 2.753906 -4.578125 2.890625 -3.859375 C 3.023438 -3.140625 3.300781 -2.5625 3.71875 -2.125 C 4.144531 -1.6875 4.757812 -1.46875 5.5625 -1.46875 C 6.351562 -1.46875 6.957031 -1.6875 7.375 -2.125 C 7.800781 -2.5625 8.082031 -3.140625 8.21875 -3.859375 C 8.351562 -4.578125 8.421875 -5.46875 8.421875 -6.53125 Z M 8.421875 -6.53125 " />
            </g>
        </g>
    </g>
    <g fill="#fff5dc" fill-opacity="1">
        <g transform="translate(789.935493, 92.961803)">
            <g>
                <path
                    d="M 0.671875 -11.34375 L 0.671875 -12.8125 L 4 -12.8125 L 4 0 L 2.375 0 L 2.375 -11.34375 Z M 0.671875 -11.34375 " />
            </g>
        </g>
    </g>
</svg>